<?xml version="1.0" standalone="no"?>
<svg viewBox="0 0 200 200" xmlns="http://www.w3.org/2000/svg">
  <path fill="#FF0066" d="M34.6,-62.7C46,-53.3,57.3,-46.4,63.8,-36.4C70.3,-26.4,72,-13.2,70.5,-0.9C69,11.5,64.3,22.9,58.5,34.2C52.7,45.4,45.8,56.5,35.9,62.7C26,69,13,70.4,0,70.4C-12.9,70.3,-25.8,68.6,-34.9,61.9C-44,55.2,-49.3,43.4,-54,32.2C-58.8,21,-62.9,10.5,-66.6,-2.2C-70.4,-14.9,-73.9,-29.8,-70.3,-42.8C-66.7,-55.8,-55.9,-67,-43,-75.5C-30.1,-84,-15,-89.9,-1.7,-86.9C11.6,-83.9,23.2,-72.1,34.6,-62.7Z" transform="translate(100 100)" />
</svg>
