<svg xmlns="http://www.w3.org/2000/svg" xmlns:xlink="http://www.w3.org/1999/xlink" viewBox="179.9219970703125 37.28831100463867 179.83999633789062 119.87168884277344" width="300.05416303723405" height="200"><path d="M 193.363,150.414 C 200.000,153.034 199.867,151.287 206.371,152.160" stroke-width="4.428" stroke="black" fill="none" stroke-linecap="round"></path><path d="M 206.371,152.160 C 218.168,150.090 217.811,150.591 228.984,145.527" stroke-width="2.742" stroke="black" fill="none" stroke-linecap="round"></path><path d="M 228.984,145.527 C 248.328,137.962 247.811,137.585 265.656,127.148" stroke-width="1.872" stroke="black" fill="none" stroke-linecap="round"></path><path d="M 265.656,127.148 C 284.599,115.672 284.037,115.679 300.402,100.961" stroke-width="1.605" stroke="black" fill="none" stroke-linecap="round"></path><path d="M 300.402,100.961 C 312.248,89.795 311.710,90.434 319.879,76.672" stroke-width="1.941" stroke="black" fill="none" stroke-linecap="round"></path><path d="M 319.879,76.672 C 322.712,69.679 323.345,70.711 322.598,62.793" stroke-width="2.571" stroke="black" fill="none" stroke-linecap="round"></path><path d="M 322.598,62.793 C 322.241,56.317 322.501,56.981 319.457,51.277" stroke-width="2.994" stroke="black" fill="none" stroke-linecap="round"></path><path d="M 319.457,51.277 C 316.398,47.306 317.214,47.217 312.543,44.594" stroke-width="3.340" stroke="black" fill="none" stroke-linecap="round"></path><path d="M 312.543,44.594 C 308.296,40.804 310.175,42.927 307.012,42.520" stroke-width="3.920" stroke="black" fill="none" stroke-linecap="round"></path><path d="M 307.012,42.520 C 303.823,49.299 303.976,46.574 303.902,56.133" stroke-width="4.254" stroke="black" fill="none" stroke-linecap="round"></path><path d="M 303.902,56.133 C 305.304,65.195 304.006,65.092 307.379,74.105" stroke-width="3.040" stroke="black" fill="none" stroke-linecap="round"></path><path d="M 307.379,74.105 C 310.193,86.668 310.289,86.604 313.871,98.949" stroke-width="2.365" stroke="black" fill="none" stroke-linecap="round"></path><path d="M 313.871,98.949 C 315.556,104.370 315.480,104.322 317.953,109.414" stroke-width="2.998" stroke="black" fill="none" stroke-linecap="round"></path><path d="M 317.953,109.414 C 321.674,114.053 319.069,111.762 320.898,113.734" stroke-width="3.771" stroke="black" fill="none" stroke-linecap="round"></path><path d="M 320.898,113.734 C 317.377,110.486 319.482,113.153 313.570,107.613" stroke-width="4.400" stroke="black" fill="none" stroke-linecap="round"></path><path d="M 313.570,107.613 C 309.161,104.167 309.129,104.263 304.402,101.289" stroke-width="3.647" stroke="black" fill="none" stroke-linecap="round"></path><path d="M 304.402,101.289 C 298.150,97.410 298.151,97.509 291.551,94.297" stroke-width="3.048" stroke="black" fill="none" stroke-linecap="round"></path><path d="M 291.551,94.297 C 287.158,92.200 287.232,92.260 282.566,90.988" stroke-width="3.363" stroke="black" fill="none" stroke-linecap="round"></path><path d="M 282.566,90.988 C 276.773,89.816 280.015,90.315 277.266,90.527" stroke-width="3.921" stroke="black" fill="none" stroke-linecap="round"></path><path d="M 277.266,90.527 C 280.955,93.686 278.103,91.738 285.227,94.832" stroke-width="4.475" stroke="black" fill="none" stroke-linecap="round"></path><path d="M 285.227,94.832 C 290.656,95.669 290.361,96.209 296.078,95.574" stroke-width="3.689" stroke="black" fill="none" stroke-linecap="round"></path><path d="M 296.078,95.574 C 302.986,95.602 302.887,95.455 309.688,94.402" stroke-width="3.331" stroke="black" fill="none" stroke-linecap="round"></path><path d="M 309.688,94.402 C 318.232,92.674 318.209,92.877 326.523,90.125" stroke-width="2.860" stroke="black" fill="none" stroke-linecap="round"></path><path d="M 326.523,90.125 C 334.385,87.481 334.431,87.694 342.086,84.441" stroke-width="2.792" stroke="black" fill="none" stroke-linecap="round"></path><path d="M 342.086,84.441 C 349.424,80.646 346.651,82.640 351.055,80.441" stroke-width="3.244" stroke="black" fill="none" stroke-linecap="round"></path><path d="M 354.762,92.391 C 349.767,94.538 349.693,94.328 344.625,96.266" stroke-width="5.120" stroke="black" fill="none" stroke-linecap="round"></path><path d="M 344.625,96.266 C 332.452,100.614 332.398,100.374 320.023,104.063" stroke-width="2.606" stroke="black" fill="none" stroke-linecap="round"></path><path d="M 320.023,104.063 C 300.312,109.503 300.341,109.523 280.402,114.082" stroke-width="1.856" stroke="black" fill="none" stroke-linecap="round"></path><path d="M 280.402,114.082 C 261.834,118.191 261.880,118.342 243.160,121.742" stroke-width="1.719" stroke="black" fill="none" stroke-linecap="round"></path><path d="M 243.160,121.742 C 226.446,125.488 226.412,124.927 209.559,127.555" stroke-width="1.772" stroke="black" fill="none" stroke-linecap="round"></path><path d="M 209.559,127.555 C 199.323,129.383 199.862,128.742 189.992,128.250" stroke-width="2.370" stroke="black" fill="none" stroke-linecap="round"></path><path d="M 189.992,128.250 C 185.717,126.921 187.004,127.887 184.922,124.563" stroke-width="3.631" stroke="black" fill="none" stroke-linecap="round"></path><path d="M 184.922,124.563 C 185.422,121.577 184.201,122.426 186.961,119.262" stroke-width="4.022" stroke="black" fill="none" stroke-linecap="round"></path><path d="M 186.961,119.262 C 188.870,116.463 188.717,116.622 191.512,114.652" stroke-width="4.009" stroke="black" fill="none" stroke-linecap="round"></path><path d="M 191.512,114.652 C 196.003,111.785 195.808,111.707 200.836,109.750" stroke-width="3.728" stroke="black" fill="none" stroke-linecap="round"></path><path d="M 200.836,109.750 C 204.897,108.264 204.784,108.088 209.074,107.258" stroke-width="3.732" stroke="black" fill="none" stroke-linecap="round"></path><path d="M 209.074,107.258 C 213.229,106.110 213.200,106.264 217.441,105.750" stroke-width="3.691" stroke="black" fill="none" stroke-linecap="round"></path><path d="M 217.441,105.750 C 220.829,105.431 220.724,105.469 224.063,105.977" stroke-width="3.887" stroke="black" fill="none" stroke-linecap="round"></path><path d="M 224.063,105.977 C 227.053,106.393 226.872,106.451 229.527,107.789" stroke-width="4.102" stroke="black" fill="none" stroke-linecap="round"></path></svg>