<?xml version="1.0" encoding="UTF-8"?>
<svg xmlns="http://www.w3.org/2000/svg" xmlns:xlink="http://www.w3.org/1999/xlink" width="21px" height="24px" viewBox="0 0 21 23" version="1.1">
<g id="surface1">
<path style=" stroke:none;fill-rule:evenodd;fill:rgb(22.352941%,28.627452%,67.058825%);fill-opacity:1;" d="M 20.734375 17.234375 C 20.898438 16.957031 21 16.644531 21 16.363281 L 21 6.636719 C 21 6.355469 20.898438 6.042969 20.734375 5.765625 L 10.5 11.5 Z M 20.734375 17.234375 "/>
<path style=" stroke:none;fill-rule:evenodd;fill:rgb(15.686275%,20.784314%,57.647061%);fill-opacity:1;" d="M 11.410156 22.757812 L 20.09375 17.894531 C 20.34375 17.753906 20.570312 17.511719 20.734375 17.234375 L 10.5 11.5 L 0.265625 17.234375 C 0.433594 17.511719 0.660156 17.753906 0.910156 17.894531 L 9.589844 22.757812 C 10.089844 23.039062 10.910156 23.039062 11.410156 22.757812 Z M 11.410156 22.757812 "/>
<path style=" stroke:none;fill-rule:evenodd;fill:rgb(36.078432%,41.960785%,75.294119%);fill-opacity:1;" d="M 20.734375 5.765625 C 20.570312 5.488281 20.34375 5.246094 20.09375 5.105469 L 11.410156 0.242188 C 10.910156 -0.0390625 10.089844 -0.0390625 9.589844 0.242188 L 0.910156 5.105469 C 0.410156 5.386719 0 6.074219 0 6.636719 L 0 16.363281 C 0 16.644531 0.101562 16.957031 0.265625 17.234375 Z M 20.734375 5.765625 "/>
<path style=" stroke:none;fill-rule:evenodd;fill:rgb(100%,100%,100%);fill-opacity:1;" d="M 10.5 18.292969 C 6.640625 18.292969 3.5 15.246094 3.5 11.5 C 3.5 7.753906 6.640625 4.707031 10.5 4.707031 C 12.992188 4.707031 15.316406 6.007812 16.5625 8.101562 L 13.535156 9.804688 C 12.910156 8.753906 11.746094 8.105469 10.5 8.105469 C 8.570312 8.105469 7 9.628906 7 11.5 C 7 13.375 8.570312 14.898438 10.5 14.898438 C 11.746094 14.898438 12.910156 14.246094 13.535156 13.199219 L 16.5625 14.902344 C 15.316406 16.992188 12.992188 18.292969 10.5 18.292969 Z M 10.5 18.292969 "/>
</g>
</svg>
