<svg xmlns="http://www.w3.org/2000/svg" fill="none" viewBox="0 0 24 24" id="Fastify--Streamline-Svg-Logos" height="24" width="24"><desc>Fastify Streamline Icon: https://streamlinehq.com</desc><path fill="#000000" d="m23.409 9.51295 0.340925 -0.883075 -0.0148 -0.0547 -3.373125 0.888725c0.35965 -0.52025 0.2361 -0.93745 0.2361 -0.93745s-1.0772 0.6879 -1.8918 0.6699c-0.8146 -0.018 -1.0772 -0.2354 -2.326275 0.163075 -1.249075 0.398125 -1.602025 1.620375 -1.96415 1.882975 -0.362125 0.2626 -1.498275 1.117775 -1.498275 1.117775l0.002475 0.015175 1.02425 -0.326125s-0.28095 0.264725 -0.877775 1.0691c0 0 -0.01025 -0.00955 -0.027875 -0.025775l0.00105 0.00565s0.47965 0.733075 0.950475 0.59755c0.0473 -0.013775 0.1006 -0.036375 0.15885 -0.066025 0.189525 0.10555 0.43695 0.2093 0.710125 0.2379 0 0 -0.18495 -0.21495 -0.339175 -0.45955 0.041625 -0.026825 0.08435 -0.0547 0.12775 -0.082925l-0.020125 0.0141 0.390025 0.1433 -0.043075 -0.3667c0.001425 -0.0007 0.002475 -0.001775 0.0039 -0.002475l0.3833 0.140825 -0.04765 -0.333525c0.0487 -0.025425 0.09705 -0.049425 0.1454 -0.07165l0.39955 -1.511325 1.65215 -1.126975 -0.1313 0.33035c-0.33495 0.8238 -0.9639 1.018275 -0.9639 1.018275l-0.2626 0.099525c-0.195175 0.230825 -0.2774 0.28765 -0.344475 1.062375 0.157425 -0.039525 0.307775 -0.04905 0.444025 -0.01235 0.705875 0.190225 0.950475 1.04085 0.76025 1.27625 -0.04765 0.05895 -0.16095 0.15955 -0.3039 0.277775h-0.2866l-0.003875 0.23225c-0.009875 0.00775 -0.019775 0.015175 -0.0293 0.022925h-0.291525l-0.003525 0.2266c-0.025775 0.019775 -0.05155 0.038825 -0.07625 0.057525 -0.273875 0.00565 -0.620825 -0.2333 -0.620825 -0.2333 0 0.217425 0.18105 0.552025 0.18105 0.552025s0.012 -0.00565 0.032125 -0.015525c-0.01765 0.01305 -0.027525 0.0201 -0.027525 0.0201s0.733075 0.48885 1.194725 0.307775c0.410475 -0.16095 1.4732 -0.99885 2.390525 -1.39555l2.775925 -0.731325 0.366 -0.94835 -2.11555 0.5573v-0.851675l2.482275 -0.654 0.366 -0.948375 -2.847575 0.750375v-0.852025l3.2136 -0.846725Z" stroke-width="0.25"></path><path fill="#000000" d="M9.932425 9.5122c0.174 0 0.3046 0.027175 0.386125 0.05435l-0.152125 0.522025c-0.065275 -0.021875 -0.124925 -0.032475 -0.212125 -0.032475 -0.244575 0 -0.386125 0.255525 -0.429525 0.489175l-0.021875 0.114025 0.5009 -0.00005 -0.000075 -0.000675h0.71225v0.000725l0.016225 1.278025c0.0053 0.250225 0.01095 0.435175 0.0053 0.6307h0.01095c0.05435 -0.2174 0.1087 -0.39705 0.201175 -0.679775l0.40235 -1.22895h0.685075l-0.86965 2.093325c-0.261175 0.6092 -0.560125 1.12025 -0.88625 1.4192 -0.157775 0.146825 -0.342375 0.261175 -0.456725 0.3099l-0.271775 -0.55485c0.11965 -0.06 0.2446 -0.130575 0.3533 -0.2174 0.152475 -0.1253 0.29895 -0.277425 0.36425 -0.42425 0.01095 -0.038125 0.021525 -0.0653 0.016225 -0.11965l-0.228675 -2.027725 -0.6364 0.000025 -0.418575 2.180525h-0.6798l0.4186 -2.180525 0.092825 -0.478575 0.021525 -0.108725c0.060025 -0.315175 0.179675 -0.5873 0.402375 -0.793775 0.16305 -0.152125 0.40235 -0.2446 0.674125 -0.2446Zm-6.653775 1.104025c0.266475 0 0.53295 0.043425 0.696025 0.1087l-0.2933 1.4785c-0.0653 0.3099 -0.114375 0.826625 -0.108725 1.114625l-0.587325 -0.00005 0.001975 -0.046875c0.0057 -0.126725 0.014875 -0.258575 0.019575 -0.3985h-0.016225c-0.212125 0.35365 -0.467675 0.48955 -0.679785 0.48955 -0.386125 0 -0.576365 -0.331775 -0.576365 -0.799425 0 -0.804725 0.4023625 -1.946525 1.54415 -1.946525Zm3.779375 -0.674825 -0.1359 0.7179h1.49015l-0.51105 2.6591h-0.6798l0.419075 -2.18055 -0.81085 0.000025 -0.234 1.234275c-0.016225 0.092475 -0.021875 0.174 -0.021875 0.22305 0 0.163075 0.081525 0.223075 0.206825 0.223075 0.04905 0 0.11965 0 0.18495 -0.01095l-0.081525 0.511075c-0.12495 0.032825 -0.277425 0.043425 -0.408025 0.043425 -0.40765 0 -0.609175 -0.228375 -0.609175 -0.587325 0 -0.11965 0.021875 -0.266475 0.04905 -0.39705l0.234 -1.239925H5.84l0.092475 -0.4786h0.309875l0.108725 -0.549175 0.70695 -0.16835Zm-1.875575 0.674475c0.234 0 0.402375 0.043425 0.500125 0.097775l-0.146825 0.494825c-0.076225 -0.0434 -0.201175 -0.081525 -0.315175 -0.081525 -0.217425 0 -0.3533 0.114 -0.3533 0.29365 0 0.135875 0.076225 0.217425 0.201175 0.320825 0.29895 0.22835 0.397075 0.4892 0.397075 0.696025 0 0.5873 -0.408025 0.913425 -1.01685 0.913425 -0.2446 0 -0.462375 -0.0706 -0.554825 -0.1359l0.1627 -0.478575c0.1087 0.06 0.2393 0.114 0.429525 0.1087 0.1959 -0.0053 0.3046 -0.1306 0.3046 -0.29895 0 -0.146825 -0.070575 -0.25025 -0.255525 -0.397075 -0.228375 -0.184925 -0.337075 -0.4186 -0.337075 -0.64695 0 -0.489525 0.380475 -0.88625 0.984375 -0.88625ZM1.859445 9.5122c0.1740025 0 0.3045925 0.027175 0.386125 0.05435l-0.1521225 0.522025c-0.065295 -0.021875 -0.1249425 -0.032475 -0.21212 -0.032475 -0.2445925 0 -0.386125 0.255525 -0.4295375 0.489175l-0.021885 0.114025h0.5167175l-0.0924725 0.478575H1.348375l-0.4185975 2.180525H0.25l0.4185975 -2.180525 0.092825 -0.478575 0.02153 -0.108725c0.06 -0.315175 0.17965 -0.5873 0.40236 -0.793775 0.1630625 -0.152125 0.4023625 -0.2446 0.6741325 -0.2446Zm1.22933 1.60945c-0.445775 0 -0.685085 0.88625 -0.6907325 1.278025 0 0.234 0.032825 0.402375 0.2011825 0.402375 0.18495 0 0.35895 -0.3046 0.456725 -0.7885l0.174 -0.875675c-0.05435 -0.010925 -0.103425 -0.016225 -0.141175 -0.016225Zm5.14915 -1.560725c0.223075 0 0.326475 0.16835 0.320825 0.3533 -0.0053 0.27175 -0.190225 0.424225 -0.391425 0.424225 -0.2174 0 -0.315175 -0.15775 -0.309875 -0.35895 0 -0.195525 0.141175 -0.418575 0.380475 -0.418575Z" stroke-width="0.25"></path></svg>